<svg width="81" height="80" viewBox="0 0 81 80" fill="none" xmlns="http://www.w3.org/2000/svg">
<path d="M30.4573 21.0698C33.685 15.4793 35.2988 12.6841 37.4058 11.746C39.2435 10.9278 41.3422 10.9278 43.1799 11.746C45.2869 12.6841 46.9007 15.4793 50.1284 21.0698L67.8894 51.8328C71.1171 57.4233 72.7309 60.2186 72.4899 62.5123C72.2796 64.5129 71.2303 66.3304 69.6028 67.5129C67.7369 68.8685 64.5092 68.8685 58.0539 68.8685H22.5318C16.0765 68.8685 12.8488 68.8685 10.9829 67.5129C9.35543 66.3304 8.30611 64.5129 8.09583 62.5123C7.85475 60.2186 9.46859 57.4233 12.6963 51.8328L30.4573 21.0698Z" fill="#E0A32E"/>
<path fill-rule="evenodd" clip-rule="evenodd" d="M56.8659 17.1796L74.7868 48.2195C76.2629 50.7756 77.6268 53.1375 78.5551 55.1504C79.4999 57.199 80.5716 60.0468 80.227 63.3251C79.7863 67.5185 77.5869 71.3279 74.1756 73.8063C71.5088 75.7439 68.5067 76.2397 66.2602 76.4457C64.0529 76.6483 61.3255 76.648 58.3739 76.6478H22.2121C19.2604 76.648 16.5331 76.6483 14.3257 76.4457C12.0792 76.2397 9.07709 75.7439 6.41029 73.8063C2.99907 71.3279 0.799682 67.5185 0.358937 63.3251C0.0143759 60.0468 1.08608 57.199 2.03083 55.1504C2.95915 53.1375 4.32306 50.7756 5.79911 48.2195C5.85227 48.1275 5.90558 48.0352 5.95901 47.9426L23.7201 17.1796C23.7735 17.087 23.8268 16.9947 23.8799 16.9027C25.3555 14.3463 26.719 11.9842 27.9981 10.1738C29.2998 8.33133 31.2303 5.97929 34.2416 4.63855C38.0936 2.92354 42.4924 2.92354 46.3443 4.63855C49.3557 5.97929 51.2861 8.33133 52.5878 10.1738C53.8669 11.9842 55.2304 14.3463 56.706 16.9027C56.7592 16.9948 56.8124 17.087 56.8659 17.1796ZM37.4059 11.7456C35.2989 12.6837 33.6851 15.4789 30.4574 21.0694L12.6964 51.8324C9.4687 57.4229 7.85487 60.2182 8.09595 62.5119C8.30623 64.5125 9.35555 66.33 10.983 67.5125C12.8489 68.8681 16.0766 68.8681 22.5319 68.8681H58.054C64.5094 68.8681 67.737 68.8681 69.6029 67.5125C71.2304 66.33 72.2797 64.5125 72.49 62.5119C72.7311 60.2182 71.1172 57.4229 67.8896 51.8324L50.1285 21.0694C46.9008 15.4789 45.287 12.6837 43.1801 11.7456C41.3423 10.9274 39.2436 10.9274 37.4059 11.7456Z" fill="#FFEFBD"/>
<path d="M36.6567 30.201C36.6142 29.3414 36.593 28.9116 36.6675 28.5586C36.8852 27.526 37.6671 26.7046 38.6878 26.4362C39.0366 26.3445 39.4669 26.3445 40.3276 26.3445C41.1782 26.3445 41.6035 26.3445 41.9496 26.4347C42.9622 26.6987 43.7418 27.5071 43.969 28.5285C44.0467 28.8777 44.0313 29.3027 44.0006 30.1528L43.2777 50.1291C43.2767 50.1567 43.2762 50.1706 43.2757 50.1824C43.2095 51.6641 41.9955 52.835 40.5123 52.8476C40.5005 52.8477 40.4866 52.8477 40.459 52.8477C40.4316 52.8477 40.4179 52.8477 40.4062 52.8476C38.937 52.8353 37.7292 51.6856 37.6445 50.2188C37.6438 50.2071 37.6431 50.1934 37.6418 50.1661L36.6567 30.201Z" fill="#FFF7DE"/>
<path d="M43.7896 58.6017C43.7896 60.5276 42.2283 62.0889 40.3024 62.0889C38.3764 62.0889 36.8151 60.5276 36.8151 58.6017C36.8151 56.6757 38.3764 55.1144 40.3024 55.1144C42.2283 55.1144 43.7896 56.6757 43.7896 58.6017Z" fill="#FFF7DE"/>
</svg>
